<svg xmlns="http://www.w3.org/2000/svg" width="270.667" height="354.667" version="1.0" viewBox="0 0 203 266"><path d="M109.1 2.1c-4.9 2-5 2.4-3 10.2 1 4 1.9 7.5 1.9 7.9 0 .4-2.4-.4-5.2-1.7-6.7-3.2-10.2-3.1-16.6.1-6 3-10.2 7.6-13.9 15.4-1.4 3-2.7 5.6-2.8 5.8-.7.8-3.4-1.2-3.8-2.9-.3-1.3-1.4-1.9-3.1-1.9-2.1 0-2.6.5-2.6 2.4 0 3 4.4 8.4 7.9 9.8 3.9 1.5 10.9 1.2 13.6-.6C84 45 84 45 84 48.2c0 4.4 3.3 9.6 6.6 10.4l2.7.7-2.4 1.8c-3.3 2.6-4.3 2.4-11-1.7-6.8-4.1-11-4.5-18.7-2-8.7 2.9-12.6 7.8-9 11.4.9.9 1.4.6 2.2-1 1.8-3.5 4.1-4.4 7.3-2.8l2.8 1.4-3.2.4c-6.5.7-3.1 3.2 4.3 3.2 3.7 0 5.1.6 8.5 3.7l4.2 3.8-16.4.5-16.4.5-.3 3.2c-.3 2.5-.8 3.3-2.3 3.3-2.4 0-4.4-4.3-2.3-4.8.9-.2 1.4-1.8 1.4-4.4v-4l-4.5.6c-4.9.8-9.9-.9-7.4-2.5.8-.5 2.8-.9 4.6-.9 4.4 0 6.3-.9 6.3-3 0-4.2-1.1-5-6.5-5-4.9 0-5.5-.3-7.4-3.3-1.1-1.7-2.6-4-3.3-4.9-1-1.4-.9-2.3.5-4.7C27 43.5 26.6 41 23 41c-3.9 0-5.4 2.9-4.5 8.7.7 4.8.3 4.9-3.7 1.5-1.3-1.1-1.6-2.5-1.2-5.6.7-5.5-.6-7.3-4.3-6-5.2 1.8-3.8 10 2.7 15.9 1.6 1.4 1.7 2 .8 2.6-1.1.7-1 1.2 0 3 2.3 3.6.3 3.5-3.5-.3-2.8-2.8-3.6-4.5-3.7-7.5-.1-3.1-.5-3.9-2.3-4.1-2-.3-2.3.1-2.3 3.3 0 2.4.9 4.8 2.6 7.1L6.2 63H3.6c-2.3 0-2.6.4-2.6 3.5s.4 3.6 4.3 5.3c2.3 1 4.8 2.6 5.6 3.5.7 1 2.7 1.7 4.4 1.7 2.9 0 2.9.1 1.3 1.9-1.3 1.5-1.4 2-.4 2.4.7.2.2.5-1.2.6-1.4 0-3.4.1-4.5.2-1.1 0-2.9-.2-4-.4-1.1-.3-2.2-.6-2.5-.6-.3-.1.6-.7 2-1.4s2.5-2.1 2.5-3.2c0-1.6-.6-1.9-3-1.7-8.8 1-6.2 9.2 3.4 10.7 2 .3 5 .9 6.6 1.3l3 .8-4 2.8c-3.9 2.8-3.9 2.8-1 2.2 1.7-.3 4.1-.9 5.4-1.2 2.3-.7 2.4-.6 1.7 3.7-1 7-5.6 10.1-12.3 8.3l-2.3-.6 2.6-3.1c3-3.5 2.1-5-2.7-4.5-3 .3-3.5.7-4.3 4.1-.8 3.1-.6 4.2 1.1 6.5 1.6 2.2 2.9 2.8 6.7 3 6.5.4 10.5-2.2 14.6-9.9 1.7-3.3 3.4-5.9 3.6-5.7 1.1 1.1-2.2 8.5-5.3 11.9-2 2.2-3.3 4.2-3 4.5.9.9 4.3-1.3 7.1-4.7 2.9-3.5 3.5-1.9 1.2 3.5-1.9 4.6-5.2 6.6-10.7 6.6-7.6 0-9.5 1.3-6.3 4.4 1.9 2 6.9 2 12.3.1 4.1-1.4 4.1-1.4 4.1 1 0 1.8.5 2.5 2 2.5 1.1 0 2 .7 2 1.5 0 1.7 1.6 2 2.5.5.3-.6 1.1-1 1.6-1 1.8 0-1.1 4-4.1 5.5-4.2 2.2-6 1.9-9.6-1.6-3.6-3.5-5.4-3.2-5.4 1 0 5.9 8 8.7 16.4 5.8l4.6-1.6v2.5c0 2.6.9 3.1 2.8 1.2.9-.9 1.2-.8 1.2.4 0 3.8-6.1 6.3-8.7 3.7-.7-.7-2.3-.9-3.7-.5-2.4.6-2.5.9-1.5 2.9 1.6 3 2.8 3.7 6.6 3.7 2.6 0 3 .3 2.6 2-.4 1.6-.2 1.9 1.3 1.3 1.1-.3 2.9-1.3 4.2-2.1 1.3-.8 2.2-1 2.2-.4 0 1.4-2.9 4.2-4.3 4.2-.6 0-.2.6.8 1.4 1.9 1.4 1.8 1.7-2.8 10.6-3.7 7.2-4.7 10.1-4.7 14 0 5 .8 6.5 10.2 19.5 3.5 4.8 3.6 5.1 2 7.2-1.1 1.4-3.3 2.5-6 2.9-6.2 1-8.2 3-7 7.3l.9 3.4 2.8-2.7c3.9-3.7 6.3-3.3 10.5 1.6l3.5 4.3-.9-3.5c-.5-1.9-1.2-4.6-1.6-5.9-.5-1.8-.2-2.8 1.1-3.7 3.7-2.7 4.7-1.8 4.3 3.8-.3 4.7-.1 5.2 2 5.7 1.3.3 2.3.9 2.3 1.3-.3 3.3 0 4.1 1 3.1.8-.8.8-1.7 0-3.1-1.6-3-1.4-3.2 1.9-3.2 1.9 0 3 .5 3 1.4 0 .9-.7 1.2-2 .9-1.1-.3-2 0-2 .6s1.2 1.1 2.6 1.1c2.5 0 2.5.1-2 5.1-4.9 5.5-6.2 9.3-5.3 16.5 1 9.2 10.2 13.8 15.7 7.9l2.3-2.5 1.8 3c1.1 1.7 3 3.2 4.6 3.6 1.5.3 3.3.7 3.9.9.6.2 1.4 2.1 1.8 4.3.5 3.6.9 4 4.2 4.6 2 .4 4.9.4 6.5.1 1.8-.4 2.9-.3 2.9.4 0 .6 1.6 1.1 3.6 1.1 2.9 0 3.5-.3 3-1.6s-.2-1.4 1.1-.8c1 .4 3.6.8 5.8.8 3.6.1 4.1-.2 6.3-4.2 1.5-2.7 3.8-5 6.3-6.2 2.1-1.1 4.3-2.9 4.9-4 1-1.8 1.1-1.8 3.6.7 4.9 4.9 13.3 1 15.5-7 1.6-5.9.4-9.9-4.6-16.1-2.5-3-4.5-5.7-4.5-6 0-1.2 3.8-.6 4.4.6.3.9 1.6.1 3.5-2.2 2.4-2.7 3.1-4.4 3.1-7.7 0-4.3 1-5.2 3.8-3.4 1.5.9.8 5.2-1.4 8.8-1.1 1.8-1.1 2.3.2 3.4.8.6 1.5 1 1.7.8.1-.2.9-1.7 1.7-3.4.9-1.6 2.8-3.4 4.4-4 2.5-.8 3.1-.6 5 1.8 2.7 3.3 4.6 2.1 4.6-2.9 0-3.1-.2-3.3-5.4-4.4-3-.6-6.1-1.9-7.1-3-2-2.2-1.4-3.5 4.6-11.5 8.9-11.8 9.6-18 3-28.2-5-7.8-5.5-9.2-3.5-11.4 1.4-1.6 1.4-1.8-.5-2.9-1.2-.6-2.1-1.5-2.1-2.1 0-.6.7-.6 1.9.1 2.7 1.4 5.1 1.3 5.1-.4 0-.8 1.6-1.6 3.9-2 3.7-.6 5.1-2 5.1-5.2 0-.8-1-1.4-2.5-1.4-1.4 0-2.5.4-2.5 1 0 1.2-4.9 1.3-6.7.2-1.3-.8-3.6-6.2-2.6-6.2.4 0 1.4.7 2.3 1.5 1.5 1.4 1.6 1.2 1.2-1.7-.4-2.7-.3-3 1.4-2.3 10 4.2 15.4 4.3 19.4 0 2-2.2 2.2-2.8 1.1-5.1l-1.1-2.6-3.6 3.1c-4.1 3.7-8.3 4-11 1-1.4-1.6-1.5-2.3-.6-2.6.6-.3 1.2-1.1 1.2-1.9 0-.8.9-1.4 2-1.4 3.3 0 2.6-4.3-.9-5.7-3.4-1.2-6.2-5.3-3.6-5.3.8 0 1.5-.5 1.5-1.2s1.3.9 2.9 3.4c3.3 5.2 6.7 6.8 14.7 6.8 4.5 0 5.4-.3 5.4-1.8 0-3.7-1.7-4.7-8.2-4.7-5.9 0-6.3-.1-8.5-3.4-1.3-1.9-2.3-4.3-2.3-5.5 0-1.9.2-1.9 2.5.7 1.4 1.5 3.3 2.7 4.2 2.7 1.4 0 1.4-.2-.1-2.3-.9-1.2-2.3-3.1-3.1-4.3-.8-1.1-1.7-3.6-2-5.5-.6-3.4-.6-3.4 1.9 1.2 5.9 10.9 14.9 14.3 20.9 7.8 1.8-2 2.7-4 2.7-6.4 0-3.1-.3-3.5-3.4-4.1-1.9-.3-4.2-.1-5.2.4-1.6.9-1.4 1.3 1.5 4 3.2 2.9 3.2 2.9.9 3.6-3.1.8-8.1.7-9.4-.2-1.7-1.1-3.1-4.3-3.9-9.1-.7-4-.6-4.3 1.1-3.6 1.1.4 2.8 1 3.9 1.3 1.9.5 1.9.4.3-2l-1.6-2.5 6-1.1c7.6-1.4 9.8-3.3 9.8-8.5v-4l-4.5.6c-5.3.8-6.1-.8-1-1.7 5.7-1.1 8.9-8.6 3.7-8.6-3.1 0-3.3-1.1-.7-4.2 3.3-3.9 3.6-11.8.5-11.8-1.4 0-2 .7-2 2.2 0 4.5-2.1 9.9-4.6 11.4-3 2-4 1.3-2.4-1.5.8-1.5.8-2.1 0-2.1-.6 0-.1-1.4 1.2-3.1 6.5-8.6 6.9-10.3 3.9-14-1.6-2.1-2.2-2.2-4.5-1.1-2.3 1-2.6 1.7-2.6 6.2 0 4.1-.5 5.6-2.6 7.7-2.7 2.7-4.1 2.6-2.6-.4.5-1 1.2-3.2 1.5-5 .5-2.7.2-3.6-2.4-5.7-1.7-1.5-3.4-2.4-3.9-2.1-1.5 1-1.8 4.4-.4 7.1 2 3.8 1.8 4.9-1.7 8.8-2.5 2.9-4 3.7-8.1 4.2-4 .6-5.1 1.1-5.9 3.1-1.8 4.7-1.3 5.3 4.6 5.3 4.9 0 5.5.2 5.5 2 0 2-.4 2.1-5.9 1.4-5.5-.6-5.9-.5-6.6 1.6-.4 1.4-.1 2.8.9 3.9.9 1 1.6 3 1.6 4.4 0 2.2-.5 2.7-2.5 2.7-2.2 0-2.5-.4-2.5-3.5V78h-15c-8.2 0-15-.4-15-.9s1.6-2.3 3.5-4c3.1-2.7 4.3-3.1 9.8-3.2l6.2-.1-3.5-1.6-3.5-1.6 3.3-.4c2.1-.2 4.6.4 6.8 1.7 2.8 1.7 3.4 1.8 3.4.5 0-5.3-7.5-11.3-14.2-11.4-3.2 0-3.1 0-1.8-3.5.8-2.1.6-3.1-1.1-5.5-2.2-2.9-2.2-3.5.2-11.5 1-3.3.9-4.6-.2-7-2.1-4.3-5.4-5.7-12.2-5.1l-5.7.6 2.5-4.9c1.9-3.8 3.3-5.3 6-6.2 3.4-1.3 4.7-4 2.5-5.4-.6-.4-.8-1.1-.5-1.6.8-1.2-4.2-6.2-5.8-5.6-.6.2-2 3.4-3 7.2-2.2 8.6-4.4 13.3-6.8 14.6-1.6.8-1.9.6-1.9-1.5 0-1.4-.4-3.5-.9-4.8-.4-1.3-1.1-3.5-1.5-5.1-.6-2.5-.4-2.7 2.6-2.7 5 0 6.4-1.3 5.2-4.7-1-3.1-3.5-3.8-7.3-2.2zm-7 20.7 2.2 1.9-4.8 1.2c-6.1 1.5-12.7 6.1-15.6 10.8-2.6 4.1-3.8 2.9-1.8-2 4.2-10.8 14.1-16.6 20-11.9zm25.8 5.1c.7.5 1.6 2.9 1.8 5.5.5 4.3.4 4.6-1.8 4.6-3.5 0-4.4 1.1-4.4 5.3 0 3.4.2 3.7 2.8 3.7 2.4 0 2.7.3 2.7 3.5 0 2.2.6 3.8 1.5 4.1 2.4 1 1.7 2.2-2.3 4.3-3.7 1.9-3.8 1.9-6.1 0-1.3-1.1-3.1-2.4-3.9-2.8-1.3-.7-1.1-1.6 1.1-6.2 3.2-6.3 3.3-8.3.7-14-2.8-6.3-2.6-7.7 1.3-8.2 1.7-.2 3.7-.4 4.2-.5.6-.1 1.6.2 2.4.7zM111.8 31c4 2.5 7.2 7.5 7.2 11.6 0 1.6-1.3 5.1-3 7.7-1.6 2.6-3 5.8-3 7 0 2.7-.8 3.8-4.2 6-1.5.9-3.4 3-4.2 4.6-2.3 4.4-5.4 4.7-7.3.6-3.4-7.1 1.5-15.1 13.5-22.2 2.4-1.4 4.2-3.2 4.2-4.3 0-1.5-1.2-1.8-8.3-2.2-5.9-.3-9.4-1-11.8-2.4-4.2-2.5-4.3-3.9-.4-6.4 4.1-2.7 12.8-2.7 17.3 0zM85.7 45.7c-.2 1.6-.4.3-.4-2.7s.2-4.3.4-2.8c.2 1.6.2 4 0 5.5zm4.7-3.5c1.1 5.3 1.3 7.8.6 7.8-.7 0-3-6.8-3-8.9 0-2 2-1.1 2.4 1.1zm6.1 3.9c1.2 5.4-.9 5.4-2.5 0-.7-2.4-.5-3.1.5-3.1.7 0 1.6 1.4 2 3.1zm4.5 0c0 1.1-.4 1.7-1 1.4-.5-.3-1-1.3-1-2.1s.5-1.4 1-1.4c.6 0 1 .9 1 2.1zM70.9 61.7c.2.2-.5.3-1.7.3-1.4 0-2.2-.6-2.2-1.6 0-1.4.3-1.5 1.8-.3.9.7 1.9 1.5 2.1 1.6zm49.1-1.1c0 .4-2.7 3.5-5.9 7-3.3 3.4-6.2 7.2-6.6 8.3-.5 1.7-1.5 2.1-4.9 2.1-4 0-4.5-.3-8-5.5-2.3-3.3-3.6-6.1-3.2-7 .8-2.1 2.6-1 2.6 1.5 0 1.1 1.3 3.4 2.8 5.1 3.6 4 6.1 3.4 10.2-2.6 3.5-5 8.7-9.5 11.3-9.5.9 0 1.7.3 1.7.6zm17-.2c0 .2-.7.6-1.5 1-.8.3-1.5.1-1.5-.4 0-.6.7-1 1.5-1s1.5.2 1.5.4zM11.8 66c4.3 1.9 4.2 4-.3 4-1.9 0-3.5-.3-3.5-.8 0-.4-.3-1.8-.7-3.1-.3-1.3-.2-2.2.3-1.9.5.2 2.4 1.1 4.2 1.8zm182.8 2.6c-.6 1.6-7.6 2-7.6.4 0-.5 1.7-1.8 3.8-2.9 3.1-1.6 3.8-1.7 4-.5.2.9.1 2.2-.2 3zm-8.9 5c-.3.3-1.2.4-1.9.1-.8-.3-.5-.6.6-.6 1.1-.1 1.7.2 1.3.5zm8.4 4.6c1 1.3 1.8 2.6 1.9 3 0 1.7-5.9.7-8.6-1.5l-2.9-2.2 3.5-.6c1.9-.4 3.7-.7 3.8-.8.2 0 1.2.9 2.3 2.1zM185 81c1.3.8 1.3 1-.2 1-.9 0-2-.5-2.3-1-.8-1.3.5-1.3 2.5 0zm-30.2 53.5c.2 29.1 0 54.9-.3 57.1-.3 2.3-1.3 5-2.1 6-1.4 1.8-1.5 1.7-1.1-1.4.3-3 0-3.5-3.5-5.3-2.1-1.1-3.8-1.5-3.8-1s.6 1.2 1.3 1.5c.9.3.7.9-.5 1.9-2.4 1.9-2.3 2 1.7 4.1 1.9 1.1 3.5 2.3 3.5 2.8 0 2.2-9.9 10.1-16.4 13.2-11.2 5.4-20.3 6.9-36.5 6.3-14.9-.5-20.6-2-30.9-7.9-7.2-4.1-15.1-11.4-16.8-15.5-1.1-2.4-1.4-9.3-1.4-27.3v-24h11v22h-4.5c-4.3 0-4.5.1-4.5 2.9 0 4.2 2.3 6.2 6 5.1l3-.9v4.3c0 2.4.3 6.4.6 9 .6 4.4.6 4.6-1.7 4.6-2.6 0-6.9 2.5-6.9 4 0 .4 2.3-.1 5.1-1.1l5.1-2 4.1 4.4c2.3 2.5 4.8 4.6 5.6 4.9 1.2.3 1.1.9-.4 3.1-1.6 2.5-1.6 3.1-.4 5.4 1.7 3.1 5.9 5 7.1 3.1.4-.7.8-2.8.8-4.6 0-3.7-.4-3.7 6.8-1.6 5.6 1.7 20.8 1.6 33.4-.2 4.4-.6 4.6-.5 4.1 1.5-.3 1.1-.2 3.2.1 4.6.5 2.1 1 2.4 2.6 1.5 1-.5 2.8-1 3.9-1 1.7 0 2.1-.6 2.1-3.3 0-3.6-.8-5.2-3-5.9-1-.3-.6-1 1.5-2.3 9.9-6 10.4-6.5 11.4-10.2.7-2.4 1.1-21.7 1.1-52.6V91h2.5c2.7 0 3-.6 1.6-2.9-.6-.9-.6-2.2 0-3.3.8-1.5.6-1.8-1.6-1.8-2.3 0-2.5.4-2.5 4v4h-14l.6-4 .7-4h-10.6l.5 3.8.6 3.8-5.7-.7c-3.1-.4-6.7-.8-8-.8-2-.1-2.2-.5-1.7-2.6.4-1.4.2-2.5-.4-2.5-.5 0-1 .9-1 2 0 2.8-2.5 2.5-5.5-.7-2.3-2.5-2.5-2.6-2.5-.8 0 1.1.7 3.1 1.6 4.3l1.5 2.2H82v-4c0-4.3-.8-4.7-5.8-3.3-2 .5-2.3 1.1-1.8 3.3.6 3.3-.9 4-9 4-6.1 0-6.4.5-6.4 12v7.5h-4.2c-4.1 0-4.3.1-4.6 3.2-.3 2.7.1 3.3 2.2 3.9 1.3.3 3.4.3 4.5-.1 2-.6 2.1-.3 2.1 9.9V138h-3.9c-7.6 0-7.1 1.9-7.1-29.1V81l53.3.2 53.2.3.3 53zm-15-22.8.2 18.3h-5c-4.7 0-5-.2-5-2.5 0-2.4.2-2.5 3.5-1.9 4.5.8 5.3-1.1 2.6-6.3-2.6-5.1-4.4-6.5-7.8-6.1-2.2.2-3.3 1.3-5.2 4.9-3.2 6-2.4 8.4 2.4 7.5 3.3-.6 3.5-.5 3.5 1.9v2.5h-13.5c-8.7 0-13.5-.4-13.5-1 0-1.9 5.2-6 7.7-6 1.4 0 2.1-.4 1.8-1-.8-1.3-4.2-1.3-4.7-.1-.1.5-1.2.3-2.2-.5-1.9-1.4-1.9-1.4.3-1.4 2.1 0 2.3-.4 1.9-3.8l-.3-3.9 4.5.9c6.2 1.2 9.4.3 8.7-2.4-.7-2.4 1.5-5 3.6-4.2.8.3 1.7-.2 2-1 .5-1.2 0-1.6-1.8-1.6-2.3 0-4.2-1.5-2.8-2.2.5-.2 2-1.7 3.5-3.3l2.7-3H115v4.2c0 3.9-.2 4.3-2.4 4.3-1.3 0-3.2-.3-4.2-.7-1.4-.5-1.1-.9 1.7-1.9l3.4-1.2-4.1-.1c-2.7-.1-5 .6-6.6 1.9l-2.5 1.9-2.4-2.5c-2.5-2.6-6.9-3-7.7-.7-.2.9.8 1.3 3.2 1.3 4.5 0 5.5 1.7 1.9 3.1-4 1.6-7.5-.6-8.7-5.4-.8-3.3-1.3-3.7-4-3.7-1.7 0-4.1-.3-5.3-.6-3.6-1-2.7 1.1 1.3 2.9 3.1 1.5 3.5 2.1 3 4.2-.5 1.9-.2 2.5 1.1 2.5 1.5 0 1.5.2-.3 1.5-1.1.8-1.4 1.5-.6 1.5 1 0 1 .4 0 2-1.8 2.9.3 4 8 4 7.2 0 7.7 1 3.5 6.2l-2.8 3.3 2.7-1.8c1.5-.9 3.4-1.7 4.3-1.7 1.4 0 1.4.2 0 2.4-1.1 1.6-1.3 2.6-.6 3.1.6.3 1.6 1.5 2.1 2.6 1 1.8.6 1.9-12 1.9H74v-2.5c0-2.4.2-2.5 3.7-1.9l3.6.7-.6-3.9c-.7-4.4-3.6-8.7-6.1-9.2-4.9-1-9.6 3.6-9.6 9.2 0 2.3.4 2.6 3.6 2.6 3.1 0 3.5.3 3.2 2.2-.3 2-1 2.3-5 2.6l-4.8.3v-17.5c0-15.6.2-17.6 1.8-18.5 1.1-.7 14.8-1 38.7-.8l37 .2.3 18.2zm31.9-12.5c-.3.7-.5.2-.5-1.2s.2-1.9.5-1.3c.2.7.2 1.9 0 2.5zm-142 1c-.3.8-.6.5-.6-.6-.1-1.1.2-1.7.5-1.3.3.3.4 1.2.1 1.9zM120 105c0 .5-.4 1-1 1-.5 0-1-.5-1-1 0-.6.5-1 1-1 .6 0 1 .4 1 1zm-86.9 2.7c-.8 1.5-1 1.5-1.1.2 0-1.7 1-3.2 1.8-2.5.2.3-.1 1.3-.7 2.3zm136.9-1.2c0 .8-.4 1.5-1 1.5-.5 0-1-.7-1-1.5s.5-1.5 1-1.5c.6 0 1 .7 1 1.5zM87.5 110c.3.5-.1 1-1 1s-1.3-.5-1-1c.3-.6.8-1 1-1 .2 0 .7.4 1 1zm-54.4 3.4c.5-.3.9.2.9 1.1 0 1.6-4.6 4.3-5.6 3.2-.4-.4.1-1.9 1.1-3.4 1.1-1.6 2-2.3 2.3-1.5.2.7.8 1 1.3.6zm134.9 5.7c0 .5-.4.9-1 .9-.5 0-1-.7-1-1.6 0-.8.5-1.2 1-.9.6.3 1 1 1 1.6zm-77.2 15.1c.7.7 1.2 2.9 1.2 5v3.9l9.3-.3c9.2-.3 9.2-.3 8.9-2.8-.1-1.4 0-3.5.3-4.8.5-2.2.8-2.2 15-2.2H140l-.2 18.2-.3 18.3-38.7.3-38.8.2v-37h13.8c9.4 0 14.2.4 15 1.2zm17 2.5-.3 3.8h-13l-.6-3.8-.6-3.7h14.8l-.3 3.7zm-58.2 6c-1.1 1.1-1.9-.6-1.1-2.4.8-1.7.8-1.7 1.2 0 .3 1 .2 2.1-.1 2.4zm9.4-1.2c0 .8-.9 1.5-2 1.5s-2-.7-2-1.5.9-1.5 2-1.5 2 .7 2 1.5zm105.5 4.5c1 1.6-1.2 1.2-2.9-.6-.9-.8-1.6-1.8-1.6-2 0-.7 3.8 1.5 4.5 2.6zM140 179.3c0 8-1.3 12.3-4.7 16-13.6 14.2-52.7 14.7-67.6.8-4.6-4.2-5.7-7.3-5.7-15.6V173h78v6.3zm-83 33.8c0 1.1-.4 1.7-1 1.4-.5-.3-1-1.5-1-2.6s.5-1.7 1-1.4c.6.3 1 1.5 1 2.6zm88.7 1.6c-.3 1-.5.4-.5-1.2 0-1.7.2-2.4.5-1.8.2.7.2 2.1 0 3zm-2.2 1.3c-.3.5-1 1-1.6 1-.5 0-.9-.5-.9-1 0-.6.7-1 1.6-1 .8 0 1.2.4.9 1zm-74.3 9.2c-.7.7-1.2.8-1.2.2 0-1.4 1.2-2.6 1.9-1.9.2.3-.1 1.1-.7 1.7zm27.4 10.4c-.8 2.9-12.3 15.4-14.2 15.4-5.1 0-8.7-7.2-4.3-8.3 1.8-.5 2-.2 1.5 1.9-.5 1.9-.3 2.4 1.4 2.4 1.1 0 2-.4 2-.9s.3-1.6.6-2.4c.3-1-.5-1.8-2.8-2.6-2.8-1-3.6-.9-6.2 1-1.6 1.3-3.1 1.8-3.3 1.3-.9-2.4-2.2-3.4-5.1-4-3.1-.6-3.2-.5-3.2 2.5 0 2.6.4 3.1 2.5 3.1 2.8 0 3.4 2.4.9 3.4-2.9 1.1-4.4.6-5.3-1.7-1-2.6.7-14.7 2.2-14.7.5 0 .7.9.4 2-.4 1.7 0 2 2.4 2 2.2 0 2.9-.5 2.9-2 0-1.1 1.3-3.4 3-5.2 2.4-2.8 2.9-3 3-1.4 0 1.1-.6 2.7-1.4 3.5-1.4 1.7-3.2 8.1-2.2 8.1.3 0 2.9-2.9 5.7-6.5 3.3-4.2 5.8-6.5 7.1-6.5 2 0 2 .1.3 2.7-2.4 3.6-3.7 9.3-2.1 9.3.6 0 2.7.3 4.6.5 4.1.7 6.3-.5 5.4-2.8-.4-1.2-1.3-1.5-3-1.1-3.8 1-2.9-1.3 1.6-4.1 2.3-1.4 4.4-3.4 4.8-4.3.9-2.2 1.6 6.2.8 9.4zm33.3-8.2c1.2 1.3 2.8 4.3 3.6 6.7 1.3 4.4 1.7 4.2 3-1.5.6-2.9.6-2.9 2.6-1 1.4 1.5 1.9 3.6 2.1 8.6.3 7.5-.6 9.2-4.5 8.3-2.9-.8-2.7-3.1.4-4 1.2-.4 1.9-1.6 1.9-3.1 0-2-.5-2.4-3.1-2.4-2.3 0-3.2.5-3.6 2.1-.4 1.6-1.1 1.9-2.7 1.4-1.1-.3-3.9-.9-6.2-1.2-3.2-.4-4.2-.2-4.7 1.1-.9 2.3.1 4.3 2.4 4.9 2.5.7 2.4 2.3-.1 3.7-2.2 1.2-4 .6-4-1.3 0-.7-2.5-3.7-5.5-6.7-4.3-4.3-5.6-6.2-6.1-9.6-.3-2.3-.4-4.9-.2-5.9.3-1.5.6-1.5 3.1.5 1.5 1.2 3.5 2.3 4.5 2.4.9.2 1.8 1.3 2 2.5.3 1.9-.1 2.2-1.9 1.9-1.6-.2-2.5.3-2.7 1.5-.5 2.2 1.9 3.1 6.4 2.2 3.5-.6 3.6-.7 2.9-4.3-.3-2-.9-4.8-1.2-6.1-.9-3.6 1.7-1.7 7.1 5.3 4.5 5.8 4.5 5.8 5.2 3.1.5-1.9.1-3.4-1.3-5.3-4.1-5.6-3.7-8.3.6-3.8zM97 245c0 1.3-.7 2-2 2-1.8 0-1.9-.3-1-2 .6-1.1 1.5-2 2-2 .6 0 1 .9 1 2zm12.5 6c-.5 2.8-.4 3.3.6 2.2 2.3-2.2 3.9-1.4 3.9 2.2 0 4.1-2.5 6.8-3.5 3.7-.7-2.3-5.5-3-5.5-.9 0 .9-.4.8-1-.2-.5-.8-1-3.2-1-5.3 0-3.6.1-3.7 2.7-3.1 2.3.6 2.5.5 1.9-1.2-.5-1-1-2.8-1.3-3.9-.4-1.8-.2-1.7 1.7.5 1.7 1.9 2 3.1 1.5 6zm16.9-6.4c1 2.6.7 3.4-1.1 3.4-1 0-2.3-1.1-3-2.5-1-2.3-.9-2.5 1.2-2.5 1.3 0 2.6.7 2.9 1.6zm-27.5 10.1c-.7 3.2-1.4 5-1.7 4-.5-2.2-1.3-2.2-4.6.4-3.2 2.5-3.6 2.3-4.3-2.9-.6-4.6 1.1-6.4 3.2-3.6 1.3 1.8 1.4 1.8 1.5.1 0-1 .8-1.7 2-1.7 1.3 0 2.5-1 3.2-2.8 1.8-4.2 2.2-.3.7 6.5z"/><path d="M52 86.6c0 3.2.2 3.4 3.5 3.4 2.8 0 3.5-.4 3.5-1.9 0-1.1.2-2.6.6-3.4.4-1.1-.4-1.4-3.5-1.4-4 0-4.1.1-4.1 3.3zM144.7 110.7c-1.1 1.1-.8 4.8.5 6.1 1.7 1.7 5.3 1.5 6.8-.3.7-.8 1-2.5.6-4-.5-2-1.2-2.5-4-2.5-1.8 0-3.6.3-3.9.7zM144 136.9c0 .5 1.2 1.1 2.7 1.3l2.6.3-2.7 3.2-2.8 3.3h8.7l.1-4.5.1-4.5h-4.4c-2.3 0-4.3.4-4.3.9zM144.2 170.7c.3 3.6.5 3.8 3.9 4.1 3.4.3 3.7.1 4.3-2.9.9-4.8.9-4.9-4-4.9h-4.5l.3 3.7zM99.5 214.1c-.8 3.5.4 5.3 3.1 4.7 1.8-.3 3.4-4.3 2.6-6.6-.2-.6-1.5-1.2-2.7-1.2-1.8 0-2.5.7-3 3.1zm4 1.9c.3.5-.1 1-1 1s-1.3-.5-1-1c.3-.6.8-1 1-1 .2 0 .7.4 1 1zM76 105c0 .5.9 1 2 1s2-.5 2-1c0-.6-.9-1-2-1s-2 .4-2 1zM114 139.4c0 .7 1.5 1.9 3.3 2.7 3.2 1.4 3.2 1.4 3.4 9 0 4.2.6 8.6 1.2 9.7.6 1.1 1.1 3 1.1 4.1 0 1.2.4 2.1.8 2.1s.5-2.8.1-6.3c-.4-4.1-.1-7.5.8-10.1 1.3-3.9 1.3-4-1.8-7.2-3.6-3.7-8.9-6.1-8.9-4zM81.2 142c-4.6 3.3-5.3 6.3-2.8 11 1.2 2.1 1.2 2.9 0 5.2-.8 1.6-1.2 3.9-.8 5.3 1.6 6.5 3.7-.7 3.5-12.2-.1-7.1 0-7.3 2.9-8.8 1.7-.9 3-2 3-2.5 0-1.7-1.5-1.1-5.8 2zM86.2 178.7c-1.3.3-2.7 1.5-3.3 2.9-1.2 3.4-1.2 3.4 1.1 3.4 1.4 0 2 .7 2 2.1 0 3.4-1.8 5.7-5 6.4-1.7.4-3 1.3-3 2.2 0 1.5 2.3 1.5 6.3-.2 1.4-.6 1.7-.2 1.7 2.4 0 2.4.4 3.1 1.9 3.1s2.1-.8 2.3-3.3c.3-3.1.4-3.2 6.3-3.8 3.3-.4 6.9-1 8.1-1.4 1.8-.6 2.2-.2 2.8 2.5.3 1.7.1 4-.4 5-1.5 2.8-1.3 2.9 2.7 1.9 4.3-.9 6.3-3.1 6.3-7 0-2.4.5-2.8 4.1-3.4 2.2-.4 4.3-1.3 4.5-2 .7-1.8-3.6-11.5-5.1-11.5-2.3 0-2.5 1.3-.3 2.4 2.9 1.5 3.3 3.3.9 4.1-1.2.3-2.1 1.3-2.1 2.1 0 1.8-1.1 1.8-3.5 0-1.5-1.1-4.2-1.3-11.5-.9-10.3.6-11.5.2-12.2-4.6-.3-2.7-1.1-3-4.6-2.4z"/></svg>